<svg width="124" height="32" viewBox="0 0 124 32" fill="none" xmlns="http://www.w3.org/2000/svg">
<g clip-path="url(#clip0_9020_10546)">
<path d="M25.1077 1.85208L24.1874 7.10657C24.1074 7.5696 23.7673 7.90178 23.3072 7.90178H23.2271C21.5566 7.77093 16.8452 7.35822 13.8443 7.35822C12.6739 7.35822 11.4635 7.73066 11.4635 9.11978C11.4635 9.70361 11.8837 10.0861 13.2941 10.9317L18.3857 13.9515C21.3866 15.713 22.5569 18.0282 22.5569 20.9675C22.5569 28.8191 16.0049 32.01 8.92274 32.01C5.50169 32.01 2.83086 31.547 0.700209 30.9128C0.330095 30.7819 -0.0100098 30.5705 -0.0100098 30.1981V30.0672L0.870261 24.9134C0.950286 24.4504 1.3304 24.0779 1.83056 24.0779H1.91058C3.6111 24.239 8.04247 24.7121 10.2431 24.7121C11.9137 24.7121 13.2941 24.1283 13.2941 22.2359C13.2941 21.6017 12.874 21.1387 11.6736 20.3434L6.29193 16.77C3.87118 15.1695 2.71083 12.4416 2.71083 9.83447C2.71083 2.27486 8.59264 0.00999451 15.2247 0.00999451C18.5157 0.00999451 22.857 0.553562 24.4875 1.05686C24.8276 1.18772 25.1177 1.34878 25.1177 1.73129V1.86215H25.1077V1.85208Z" fill="white"/>
<path d="M49.2452 1.33879L48.3649 6.46241C48.2849 6.92545 47.8247 7.29789 47.3646 7.29789H38.932C37.4215 7.29789 36.8413 7.8012 36.5513 9.4017L36.0111 12.4718H46.2742C46.6944 12.4718 46.9845 12.7638 46.9845 13.1865V13.3174L46.1042 18.2699C46.0242 18.7329 45.604 19.1054 45.1439 19.1054H34.8807L34.2505 22.5983C34.2005 22.9405 34.1705 23.1821 34.1705 23.4338C34.1705 24.4001 34.6707 24.692 35.871 24.692H44.3036C44.7238 24.692 45.0139 24.984 45.0139 25.4067V25.5376L44.0936 30.6612C44.0135 31.1645 43.6734 31.4162 43.1333 31.4967C41.5128 31.7081 38.962 32 34.9107 32C30.0292 32 25.5679 30.2384 25.5679 24.7424C25.5679 24.0679 25.6479 23.3533 25.7779 22.6084L28.0786 9.4319C29.5491 0.926077 34.5606 0 40.4424 0C44.4937 0 47.0245 0.291916 48.5749 0.503303C49.0351 0.553633 49.2452 0.76502 49.2452 1.17773V1.33879Z" fill="white"/>
<path d="M79.9896 0.877419L74.7878 30.4103C74.6217 31.2671 73.7495 32 72.8877 32H67.5198C66.7411 32 66.2635 31.649 65.9208 30.8439L59.5146 16.4232C59.3796 16.1239 59.2446 16.0723 59.1304 16.0723C59.0162 16.0723 58.9124 16.1548 58.8709 16.4542L56.2751 31.1329C56.1921 31.6077 55.7145 31.9897 55.2369 31.9897H48.7372C48.3011 31.9897 48 31.6903 48 31.2568V31.1226L53.1914 1.58968C53.3576 0.732903 54.2297 0 55.0915 0H60.3764C61.1966 0 61.5393 0.516129 61.8923 1.24903L68.475 16.1032C68.61 16.4026 68.6411 16.4852 68.7761 16.4852C68.9111 16.4852 69.0357 16.4335 69.0772 16.1032L71.7664 0.867097C71.8494 0.392258 72.3271 0.0103226 72.8047 0.0103226H79.3043C79.7404 0.0103226 80 0.309677 80 0.701936V0.867097L79.9896 0.877419Z" fill="white"/>
<path d="M105.179 32H97.8945C97.4635 32 97.166 31.6223 97.166 31.1936L97.0326 25.2734H89.4196L87.1521 31.1936C86.9879 31.6223 86.598 32 86.1671 32H78.5951C78.2155 32 78 31.7856 78 31.4488C78 31.3671 78.0513 31.2344 78.0821 31.1018L88.4449 5.06284C90.1173 0.847209 93.5031 0 97.5661 0C101.629 0 104.717 0.847209 104.882 5.06284L106 31.1018V31.1528C106 31.6223 105.651 32 105.189 32H105.179ZM96.8274 7.64529C96.8274 7.26762 96.8274 7.05327 96.4478 7.05327C96.0682 7.05327 96.0169 7.26762 95.8937 7.64529L91.8717 18.4651H97.0121L96.8479 7.64529H96.8377H96.8274Z" fill="white"/>
<path d="M123.344 0.815754C123.426 0.25815 123.077 0 122.615 0H115.596C115.124 0 114.693 0.351084 114.611 0.815754L113.277 8.45699L122.79 3.96518L123.334 0.805428L123.344 0.815754Z" fill="#E84910"/>
<path d="M112.672 11.8852L109.306 31.1329C109.224 31.5666 109.47 31.9899 109.994 31.9899H117.012C117.659 31.9899 117.956 31.6079 118.039 31.1329L122.194 7.3934L112.682 11.8852H112.672Z" fill="white"/>
</g>
<defs>
<clipPath id="clip0_9020_10546">
<rect width="124" height="32" fill="white"/>
</clipPath>
</defs>
</svg>
